<svg width="498" height="49" viewBox="0 0 498 49" fill="none" xmlns="http://www.w3.org/2000/svg">
<path d="M61.354 13.456H58.726V19H56.962V6.4H58.726V11.872H61.39L65.35 6.4H67.276L62.776 12.502L67.492 19H65.44L61.354 13.456ZM72.574 9.37C73.894 9.37 74.902 9.694 75.598 10.342C76.306 10.99 76.66 11.956 76.66 13.24V19H75.022V17.74C74.734 18.184 74.32 18.526 73.78 18.766C73.252 18.994 72.622 19.108 71.89 19.108C70.822 19.108 69.964 18.85 69.316 18.334C68.68 17.818 68.362 17.14 68.362 16.3C68.362 15.46 68.668 14.788 69.28 14.284C69.892 13.768 70.864 13.51 72.196 13.51H74.932V13.168C74.932 12.424 74.716 11.854 74.284 11.458C73.852 11.062 73.216 10.864 72.376 10.864C71.812 10.864 71.26 10.96 70.72 11.152C70.18 11.332 69.724 11.578 69.352 11.89L68.632 10.594C69.124 10.198 69.712 9.898 70.396 9.694C71.08 9.478 71.806 9.37 72.574 9.37ZM72.178 17.776C72.838 17.776 73.408 17.632 73.888 17.344C74.368 17.044 74.716 16.624 74.932 16.084V14.752H72.268C70.804 14.752 70.072 15.244 70.072 16.228C70.072 16.708 70.258 17.086 70.63 17.362C71.002 17.638 71.518 17.776 72.178 17.776ZM84.7795 14.032C85.4155 14.2 85.9075 14.47 86.2555 14.842C86.6035 15.214 86.7775 15.676 86.7775 16.228C86.7775 16.792 86.5855 17.296 86.2015 17.74C85.8175 18.172 85.2835 18.514 84.5995 18.766C83.9275 19.006 83.1715 19.126 82.3315 19.126C81.6235 19.126 80.9275 19.036 80.2435 18.856C79.5715 18.664 78.9715 18.394 78.4435 18.046L78.9655 16.732C79.4215 17.02 79.9435 17.248 80.5315 17.416C81.1195 17.572 81.7135 17.65 82.3135 17.65C83.1295 17.65 83.7775 17.512 84.2575 17.236C84.7495 16.948 84.9955 16.564 84.9955 16.084C84.9955 15.64 84.7975 15.298 84.4015 15.058C84.0175 14.818 83.4715 14.698 82.7635 14.698H81.0175V13.456H82.6375C83.2855 13.456 83.7955 13.342 84.1675 13.114C84.5395 12.886 84.7255 12.574 84.7255 12.178C84.7255 11.746 84.5035 11.41 84.0595 11.17C83.6275 10.93 83.0395 10.81 82.2955 10.81C81.3475 10.81 80.3455 11.056 79.2895 11.548L78.8215 10.216C79.9855 9.628 81.2035 9.334 82.4755 9.334C83.2435 9.334 83.9335 9.442 84.5455 9.658C85.1575 9.874 85.6375 10.18 85.9855 10.576C86.3335 10.972 86.5075 11.422 86.5075 11.926C86.5075 12.394 86.3515 12.814 86.0395 13.186C85.7275 13.558 85.3075 13.84 84.7795 14.032ZM92.8065 9.37C94.1265 9.37 95.1345 9.694 95.8305 10.342C96.5385 10.99 96.8925 11.956 96.8925 13.24V19H95.2545V17.74C94.9665 18.184 94.5525 18.526 94.0125 18.766C93.4845 18.994 92.8545 19.108 92.1225 19.108C91.0545 19.108 90.1965 18.85 89.5485 18.334C88.9125 17.818 88.5945 17.14 88.5945 16.3C88.5945 15.46 88.9005 14.788 89.5125 14.284C90.1245 13.768 91.0965 13.51 92.4285 13.51H95.1645V13.168C95.1645 12.424 94.9485 11.854 94.5165 11.458C94.0845 11.062 93.4485 10.864 92.6085 10.864C92.0445 10.864 91.4925 10.96 90.9525 11.152C90.4125 11.332 89.9565 11.578 89.5845 11.89L88.8645 10.594C89.3565 10.198 89.9445 9.898 90.6285 9.694C91.3125 9.478 92.0385 9.37 92.8065 9.37ZM92.4105 17.776C93.0705 17.776 93.6405 17.632 94.1205 17.344C94.6005 17.044 94.9485 16.624 95.1645 16.084V14.752H92.5005C91.0365 14.752 90.3045 15.244 90.3045 16.228C90.3045 16.708 90.4905 17.086 90.8625 17.362C91.2345 17.638 91.7505 17.776 92.4105 17.776ZM100.004 9.46H101.732V13.51H107.168V9.46H108.896V19H107.168V15.004H101.732V19H100.004V9.46ZM116.414 19.108C115.442 19.108 114.572 18.898 113.804 18.478C113.048 18.058 112.454 17.482 112.022 16.75C111.59 16.006 111.374 15.166 111.374 14.23C111.374 13.294 111.59 12.46 112.022 11.728C112.454 10.984 113.048 10.408 113.804 10C114.572 9.58 115.442 9.37 116.414 9.37C117.278 9.37 118.046 9.544 118.718 9.892C119.402 10.24 119.93 10.744 120.302 11.404L118.988 12.25C118.688 11.794 118.316 11.452 117.872 11.224C117.428 10.996 116.936 10.882 116.396 10.882C115.772 10.882 115.208 11.02 114.704 11.296C114.212 11.572 113.822 11.968 113.534 12.484C113.258 12.988 113.12 13.57 113.12 14.23C113.12 14.902 113.258 15.496 113.534 16.012C113.822 16.516 114.212 16.906 114.704 17.182C115.208 17.458 115.772 17.596 116.396 17.596C116.936 17.596 117.428 17.482 117.872 17.254C118.316 17.026 118.688 16.684 118.988 16.228L120.302 17.056C119.93 17.716 119.402 18.226 118.718 18.586C118.046 18.934 117.278 19.108 116.414 19.108ZM126.247 14.968H124.267V19H122.539V9.46H124.267V13.492H126.283L129.379 9.46H131.233L127.615 14.05L131.485 19H129.451L126.247 14.968ZM133.297 9.46H135.025V16.408L140.875 9.46H142.441V19H140.713V12.052L134.881 19H133.297V9.46ZM145.795 9.46H147.523V16.408L153.373 9.46H154.939V19H153.211V12.052L147.379 19H145.795V9.46ZM150.259 8.218C149.371 8.218 148.681 8.008 148.189 7.588C147.697 7.156 147.445 6.538 147.433 5.734H148.603C148.615 6.178 148.765 6.538 149.053 6.814C149.353 7.078 149.749 7.21 150.241 7.21C150.733 7.21 151.129 7.078 151.429 6.814C151.729 6.538 151.885 6.178 151.897 5.734H153.103C153.091 6.538 152.833 7.156 152.329 7.588C151.825 8.008 151.135 8.218 150.259 8.218ZM163.127 9.46H164.855V13.51H170.291V9.46H172.019V19H170.291V15.004H164.855V19H163.127V9.46ZM178.781 9.37C180.101 9.37 181.109 9.694 181.805 10.342C182.513 10.99 182.867 11.956 182.867 13.24V19H181.229V17.74C180.941 18.184 180.527 18.526 179.987 18.766C179.459 18.994 178.829 19.108 178.097 19.108C177.029 19.108 176.171 18.85 175.523 18.334C174.887 17.818 174.569 17.14 174.569 16.3C174.569 15.46 174.875 14.788 175.487 14.284C176.099 13.768 177.071 13.51 178.403 13.51H181.139V13.168C181.139 12.424 180.923 11.854 180.491 11.458C180.059 11.062 179.423 10.864 178.583 10.864C178.019 10.864 177.467 10.96 176.927 11.152C176.387 11.332 175.931 11.578 175.559 11.89L174.839 10.594C175.331 10.198 175.919 9.898 176.603 9.694C177.287 9.478 178.013 9.37 178.781 9.37ZM178.385 17.776C179.045 17.776 179.615 17.632 180.095 17.344C180.575 17.044 180.923 16.624 181.139 16.084V14.752H178.475C177.011 14.752 176.279 15.244 176.279 16.228C176.279 16.708 176.465 17.086 176.837 17.362C177.209 17.638 177.725 17.776 178.385 17.776ZM196.167 17.488V21.286H194.529V19H185.979V9.46H187.707V17.488H192.927V9.46H194.655V17.488H196.167ZM198.406 9.46H200.134V16.408L205.984 9.46H207.55V19H205.822V12.052L199.99 19H198.406V9.46ZM214.99 19.108C214.042 19.108 213.19 18.898 212.434 18.478C211.678 18.058 211.084 17.482 210.652 16.75C210.232 16.006 210.022 15.166 210.022 14.23C210.022 13.294 210.232 12.46 210.652 11.728C211.084 10.984 211.678 10.408 212.434 10C213.19 9.58 214.042 9.37 214.99 9.37C215.938 9.37 216.784 9.58 217.528 10C218.284 10.408 218.872 10.984 219.292 11.728C219.724 12.46 219.94 13.294 219.94 14.23C219.94 15.166 219.724 16.006 219.292 16.75C218.872 17.482 218.284 18.058 217.528 18.478C216.784 18.898 215.938 19.108 214.99 19.108ZM214.99 17.596C215.602 17.596 216.148 17.458 216.628 17.182C217.12 16.894 217.504 16.498 217.78 15.994C218.056 15.478 218.194 14.89 218.194 14.23C218.194 13.57 218.056 12.988 217.78 12.484C217.504 11.968 217.12 11.572 216.628 11.296C216.148 11.02 215.602 10.882 214.99 10.882C214.378 10.882 213.826 11.02 213.334 11.296C212.854 11.572 212.47 11.968 212.182 12.484C211.906 12.988 211.768 13.57 211.768 14.23C211.768 14.89 211.906 15.478 212.182 15.994C212.47 16.498 212.854 16.894 213.334 17.182C213.826 17.458 214.378 17.596 214.99 17.596ZM222.436 9.46H224.164V13.51H229.6V9.46H231.328V19H229.6V15.004H224.164V19H222.436V9.46ZM238.09 9.37C239.41 9.37 240.418 9.694 241.114 10.342C241.822 10.99 242.176 11.956 242.176 13.24V19H240.538V17.74C240.25 18.184 239.836 18.526 239.296 18.766C238.768 18.994 238.138 19.108 237.406 19.108C236.338 19.108 235.48 18.85 234.832 18.334C234.196 17.818 233.878 17.14 233.878 16.3C233.878 15.46 234.184 14.788 234.796 14.284C235.408 13.768 236.38 13.51 237.712 13.51H240.448V13.168C240.448 12.424 240.232 11.854 239.8 11.458C239.368 11.062 238.732 10.864 237.892 10.864C237.328 10.864 236.776 10.96 236.236 11.152C235.696 11.332 235.24 11.578 234.868 11.89L234.148 10.594C234.64 10.198 235.228 9.898 235.912 9.694C236.596 9.478 237.322 9.37 238.09 9.37ZM237.694 17.776C238.354 17.776 238.924 17.632 239.404 17.344C239.884 17.044 240.232 16.624 240.448 16.084V14.752H237.784C236.32 14.752 235.588 15.244 235.588 16.228C235.588 16.708 235.774 17.086 236.146 17.362C236.518 17.638 237.034 17.776 237.694 17.776ZM253.477 9.46V19H251.749V10.972H247.645L247.537 13.096C247.477 14.38 247.363 15.454 247.195 16.318C247.027 17.17 246.751 17.854 246.367 18.37C245.983 18.886 245.449 19.144 244.765 19.144C244.453 19.144 244.099 19.09 243.703 18.982L243.811 17.524C243.967 17.56 244.111 17.578 244.243 17.578C244.723 17.578 245.083 17.368 245.323 16.948C245.563 16.528 245.719 16.03 245.791 15.454C245.863 14.878 245.929 14.056 245.989 12.988L246.151 9.46H253.477ZM261.229 12.7C262.441 12.712 263.365 12.988 264.001 13.528C264.637 14.068 264.955 14.83 264.955 15.814C264.955 16.846 264.607 17.644 263.911 18.208C263.227 18.76 262.243 19.03 260.959 19.018L256.819 19V9.46H258.547V12.682L261.229 12.7ZM260.815 17.704C261.595 17.716 262.183 17.56 262.579 17.236C262.987 16.912 263.191 16.432 263.191 15.796C263.191 15.172 262.993 14.716 262.597 14.428C262.213 14.14 261.619 13.99 260.815 13.978L258.547 13.942V17.686L260.815 17.704ZM267.172 9.46H268.9V13.51H274.336V9.46H276.064V19H274.336V15.004H268.9V19H267.172V9.46ZM283.726 12.7C284.926 12.712 285.844 12.988 286.48 13.528C287.116 14.068 287.434 14.83 287.434 15.814C287.434 16.846 287.086 17.644 286.39 18.208C285.706 18.76 284.722 19.03 283.438 19.018L279.424 19V9.46H281.152V12.682L283.726 12.7ZM288.856 9.46H290.584V19H288.856V9.46ZM283.312 17.704C284.092 17.716 284.68 17.56 285.076 17.236C285.484 16.912 285.688 16.432 285.688 15.796C285.688 15.172 285.49 14.716 285.094 14.428C284.698 14.14 284.104 13.99 283.312 13.978L281.152 13.942V17.686L283.312 17.704ZM293.944 9.46H295.672V16.408L301.522 9.46H303.088V19H301.36V12.052L295.528 19H293.944V9.46ZM298.408 8.218C297.52 8.218 296.83 8.008 296.338 7.588C295.846 7.156 295.594 6.538 295.582 5.734H296.752C296.764 6.178 296.914 6.538 297.202 6.814C297.502 7.078 297.898 7.21 298.39 7.21C298.882 7.21 299.278 7.078 299.578 6.814C299.878 6.538 300.034 6.178 300.046 5.734H301.252C301.24 6.538 300.982 7.156 300.478 7.588C299.974 8.008 299.284 8.218 298.408 8.218ZM311.276 9.46H313.004V16.408L318.854 9.46H320.42V19H318.692V12.052L312.86 19H311.276V9.46ZM327.932 19.108C326.96 19.108 326.09 18.898 325.322 18.478C324.566 18.058 323.972 17.482 323.54 16.75C323.108 16.006 322.892 15.166 322.892 14.23C322.892 13.294 323.108 12.46 323.54 11.728C323.972 10.984 324.566 10.408 325.322 10C326.09 9.58 326.96 9.37 327.932 9.37C328.796 9.37 329.564 9.544 330.236 9.892C330.92 10.24 331.448 10.744 331.82 11.404L330.506 12.25C330.206 11.794 329.834 11.452 329.39 11.224C328.946 10.996 328.454 10.882 327.914 10.882C327.29 10.882 326.726 11.02 326.222 11.296C325.73 11.572 325.34 11.968 325.052 12.484C324.776 12.988 324.638 13.57 324.638 14.23C324.638 14.902 324.776 15.496 325.052 16.012C325.34 16.516 325.73 16.906 326.222 17.182C326.726 17.458 327.29 17.596 327.914 17.596C328.454 17.596 328.946 17.482 329.39 17.254C329.834 17.026 330.206 16.684 330.506 16.228L331.82 17.056C331.448 17.716 330.92 18.226 330.236 18.586C329.564 18.934 328.796 19.108 327.932 19.108ZM338.074 19.108C337.102 19.108 336.232 18.898 335.464 18.478C334.708 18.058 334.114 17.482 333.682 16.75C333.25 16.006 333.034 15.166 333.034 14.23C333.034 13.294 333.25 12.46 333.682 11.728C334.114 10.984 334.708 10.408 335.464 10C336.232 9.58 337.102 9.37 338.074 9.37C338.938 9.37 339.706 9.544 340.378 9.892C341.062 10.24 341.59 10.744 341.962 11.404L340.648 12.25C340.348 11.794 339.976 11.452 339.532 11.224C339.088 10.996 338.596 10.882 338.056 10.882C337.432 10.882 336.868 11.02 336.364 11.296C335.872 11.572 335.482 11.968 335.194 12.484C334.918 12.988 334.78 13.57 334.78 14.23C334.78 14.902 334.918 15.496 335.194 16.012C335.482 16.516 335.872 16.906 336.364 17.182C336.868 17.458 337.432 17.596 338.056 17.596C338.596 17.596 339.088 17.482 339.532 17.254C339.976 17.026 340.348 16.684 340.648 16.228L341.962 17.056C341.59 17.716 341.062 18.226 340.378 18.586C339.706 18.934 338.938 19.108 338.074 19.108ZM352.108 9.46V19H350.38V10.972H346.276L346.168 13.096C346.108 14.38 345.994 15.454 345.826 16.318C345.658 17.17 345.382 17.854 344.998 18.37C344.614 18.886 344.08 19.144 343.396 19.144C343.084 19.144 342.73 19.09 342.334 18.982L342.442 17.524C342.598 17.56 342.742 17.578 342.874 17.578C343.354 17.578 343.714 17.368 343.954 16.948C344.194 16.528 344.35 16.03 344.422 15.454C344.494 14.878 344.56 14.056 344.62 12.988L344.782 9.46H352.108ZM364.071 14.284C364.071 14.416 364.059 14.59 364.035 14.806H356.295C356.403 15.646 356.769 16.324 357.393 16.84C358.029 17.344 358.815 17.596 359.751 17.596C360.891 17.596 361.809 17.212 362.505 16.444L363.459 17.56C363.027 18.064 362.487 18.448 361.839 18.712C361.203 18.976 360.489 19.108 359.697 19.108C358.689 19.108 357.795 18.904 357.015 18.496C356.235 18.076 355.629 17.494 355.197 16.75C354.777 16.006 354.567 15.166 354.567 14.23C354.567 13.306 354.771 12.472 355.179 11.728C355.599 10.984 356.169 10.408 356.889 10C357.621 9.58 358.443 9.37 359.355 9.37C360.267 9.37 361.077 9.58 361.785 10C362.505 10.408 363.063 10.984 363.459 11.728C363.867 12.472 364.071 13.324 364.071 14.284ZM359.355 10.828C358.527 10.828 357.831 11.08 357.267 11.584C356.715 12.088 356.391 12.748 356.295 13.564H362.415C362.319 12.76 361.989 12.106 361.425 11.602C360.873 11.086 360.183 10.828 359.355 10.828ZM376.296 17.488V21.214H374.676V19H366.702V21.214H365.064V17.488H365.568C366.18 17.452 366.6 17.02 366.828 16.192C367.056 15.364 367.212 14.194 367.296 12.682L367.44 9.46H374.838V17.488H376.296ZM368.88 12.808C368.832 14.008 368.73 15.004 368.574 15.796C368.43 16.576 368.16 17.14 367.764 17.488H373.11V10.972H368.97L368.88 12.808ZM382.633 19.108C381.685 19.108 380.833 18.898 380.077 18.478C379.321 18.058 378.727 17.482 378.295 16.75C377.875 16.006 377.665 15.166 377.665 14.23C377.665 13.294 377.875 12.46 378.295 11.728C378.727 10.984 379.321 10.408 380.077 10C380.833 9.58 381.685 9.37 382.633 9.37C383.581 9.37 384.427 9.58 385.171 10C385.927 10.408 386.515 10.984 386.935 11.728C387.367 12.46 387.583 13.294 387.583 14.23C387.583 15.166 387.367 16.006 386.935 16.75C386.515 17.482 385.927 18.058 385.171 18.478C384.427 18.898 383.581 19.108 382.633 19.108ZM382.633 17.596C383.245 17.596 383.791 17.458 384.271 17.182C384.763 16.894 385.147 16.498 385.423 15.994C385.699 15.478 385.837 14.89 385.837 14.23C385.837 13.57 385.699 12.988 385.423 12.484C385.147 11.968 384.763 11.572 384.271 11.296C383.791 11.02 383.245 10.882 382.633 10.882C382.021 10.882 381.469 11.02 380.977 11.296C380.497 11.572 380.113 11.968 379.825 12.484C379.549 12.988 379.411 13.57 379.411 14.23C379.411 14.89 379.549 15.478 379.825 15.994C380.113 16.498 380.497 16.894 380.977 17.182C381.469 17.458 382.021 17.596 382.633 17.596ZM396.576 14.05C397.812 14.362 398.43 15.136 398.43 16.372C398.43 17.212 398.112 17.86 397.476 18.316C396.852 18.772 395.916 19 394.668 19H390.078V9.46H394.506C395.634 9.46 396.516 9.676 397.152 10.108C397.788 10.528 398.106 11.128 398.106 11.908C398.106 12.412 397.968 12.85 397.692 13.222C397.428 13.582 397.056 13.858 396.576 14.05ZM391.77 13.564H394.362C395.022 13.564 395.52 13.444 395.856 13.204C396.204 12.964 396.378 12.616 396.378 12.16C396.378 11.248 395.706 10.792 394.362 10.792H391.77V13.564ZM394.542 17.668C395.262 17.668 395.802 17.554 396.162 17.326C396.522 17.098 396.702 16.744 396.702 16.264C396.702 15.772 396.534 15.406 396.198 15.166C395.874 14.926 395.358 14.806 394.65 14.806H391.77V17.668H394.542ZM404.537 9.37C405.857 9.37 406.865 9.694 407.561 10.342C408.269 10.99 408.623 11.956 408.623 13.24V19H406.985V17.74C406.697 18.184 406.283 18.526 405.743 18.766C405.215 18.994 404.585 19.108 403.853 19.108C402.785 19.108 401.927 18.85 401.279 18.334C400.643 17.818 400.325 17.14 400.325 16.3C400.325 15.46 400.631 14.788 401.243 14.284C401.855 13.768 402.827 13.51 404.159 13.51H406.895V13.168C406.895 12.424 406.679 11.854 406.247 11.458C405.815 11.062 405.179 10.864 404.339 10.864C403.775 10.864 403.223 10.96 402.683 11.152C402.143 11.332 401.687 11.578 401.315 11.89L400.595 10.594C401.087 10.198 401.675 9.898 402.359 9.694C403.043 9.478 403.769 9.37 404.537 9.37ZM404.141 17.776C404.801 17.776 405.371 17.632 405.851 17.344C406.331 17.044 406.679 16.624 406.895 16.084V14.752H404.231C402.767 14.752 402.035 15.244 402.035 16.228C402.035 16.708 402.221 17.086 402.593 17.362C402.965 17.638 403.481 17.776 404.141 17.776ZM418.845 10.972H415.353V19H413.625V10.972H410.133V9.46H418.845V10.972ZM428.812 14.284C428.812 14.416 428.8 14.59 428.776 14.806H421.036C421.144 15.646 421.51 16.324 422.134 16.84C422.77 17.344 423.556 17.596 424.492 17.596C425.632 17.596 426.55 17.212 427.246 16.444L428.2 17.56C427.768 18.064 427.228 18.448 426.58 18.712C425.944 18.976 425.23 19.108 424.438 19.108C423.43 19.108 422.536 18.904 421.756 18.496C420.976 18.076 420.37 17.494 419.938 16.75C419.518 16.006 419.308 15.166 419.308 14.23C419.308 13.306 419.512 12.472 419.92 11.728C420.34 10.984 420.91 10.408 421.63 10C422.362 9.58 423.184 9.37 424.096 9.37C425.008 9.37 425.818 9.58 426.526 10C427.246 10.408 427.804 10.984 428.2 11.728C428.608 12.472 428.812 13.324 428.812 14.284ZM424.096 10.828C423.268 10.828 422.572 11.08 422.008 11.584C421.456 12.088 421.132 12.748 421.036 13.564H427.156C427.06 12.76 426.73 12.106 426.166 11.602C425.614 11.086 424.924 10.828 424.096 10.828ZM439.524 9.46V19H437.796V10.972H433.692L433.584 13.096C433.524 14.38 433.41 15.454 433.242 16.318C433.074 17.17 432.798 17.854 432.414 18.37C432.03 18.886 431.496 19.144 430.812 19.144C430.5 19.144 430.146 19.09 429.75 18.982L429.858 17.524C430.014 17.56 430.158 17.578 430.29 17.578C430.77 17.578 431.13 17.368 431.37 16.948C431.61 16.528 431.766 16.03 431.838 15.454C431.91 14.878 431.976 14.056 432.036 12.988L432.198 9.46H439.524ZM447.275 12.7C448.487 12.712 449.411 12.988 450.047 13.528C450.683 14.068 451.001 14.83 451.001 15.814C451.001 16.846 450.653 17.644 449.957 18.208C449.273 18.76 448.289 19.03 447.005 19.018L442.865 19V9.46H444.593V12.682L447.275 12.7ZM446.861 17.704C447.641 17.716 448.229 17.56 448.625 17.236C449.033 16.912 449.237 16.432 449.237 15.796C449.237 15.172 449.039 14.716 448.643 14.428C448.259 14.14 447.665 13.99 446.861 13.978L444.593 13.942V17.686L446.861 17.704ZM457.377 19.108C456.405 19.108 455.535 18.898 454.767 18.478C454.011 18.058 453.417 17.482 452.985 16.75C452.553 16.006 452.337 15.166 452.337 14.23C452.337 13.294 452.553 12.46 452.985 11.728C453.417 10.984 454.011 10.408 454.767 10C455.535 9.58 456.405 9.37 457.377 9.37C458.241 9.37 459.009 9.544 459.681 9.892C460.365 10.24 460.893 10.744 461.265 11.404L459.951 12.25C459.651 11.794 459.279 11.452 458.835 11.224C458.391 10.996 457.899 10.882 457.359 10.882C456.735 10.882 456.171 11.02 455.667 11.296C455.175 11.572 454.785 11.968 454.497 12.484C454.221 12.988 454.083 13.57 454.083 14.23C454.083 14.902 454.221 15.496 454.497 16.012C454.785 16.516 455.175 16.906 455.667 17.182C456.171 17.458 456.735 17.596 457.359 17.596C457.899 17.596 458.391 17.482 458.835 17.254C459.279 17.026 459.651 16.684 459.951 16.228L461.265 17.056C460.893 17.716 460.365 18.226 459.681 18.586C459.009 18.934 458.241 19.108 457.377 19.108ZM467.21 14.968H465.23V19H463.502V9.46H465.23V13.492H467.246L470.342 9.46H472.196L468.578 14.05L472.448 19H470.414L467.21 14.968ZM474.26 9.46H475.988V16.408L481.838 9.46H483.404V19H481.676V12.052L475.844 19H474.26V9.46ZM486.758 9.46H488.486V16.408L494.336 9.46H495.902V19H494.174V12.052L488.342 19H486.758V9.46ZM491.222 8.218C490.334 8.218 489.644 8.008 489.152 7.588C488.66 7.156 488.408 6.538 488.396 5.734H489.566C489.578 6.178 489.728 6.538 490.016 6.814C490.316 7.078 490.712 7.21 491.204 7.21C491.696 7.21 492.092 7.078 492.392 6.814C492.692 6.538 492.848 6.178 492.86 5.734H494.066C494.054 6.538 493.796 7.156 493.292 7.588C492.788 8.008 492.098 8.218 491.222 8.218ZM63.784 32.972H60.292V41H58.564V32.972H55.072V31.46H63.784V32.972ZM73.7511 36.284C73.7511 36.416 73.7391 36.59 73.7151 36.806H65.9751C66.0831 37.646 66.4491 38.324 67.0731 38.84C67.7091 39.344 68.4951 39.596 69.4311 39.596C70.5711 39.596 71.4891 39.212 72.1851 38.444L73.1391 39.56C72.7071 40.064 72.1671 40.448 71.5191 40.712C70.8831 40.976 70.1691 41.108 69.3771 41.108C68.3691 41.108 67.4751 40.904 66.6951 40.496C65.9151 40.076 65.3091 39.494 64.8771 38.75C64.4571 38.006 64.2471 37.166 64.2471 36.23C64.2471 35.306 64.4511 34.472 64.8591 33.728C65.2791 32.984 65.8491 32.408 66.5691 32C67.3011 31.58 68.1231 31.37 69.0351 31.37C69.9471 31.37 70.7571 31.58 71.4651 32C72.1851 32.408 72.7431 32.984 73.1391 33.728C73.5471 34.472 73.7511 35.324 73.7511 36.284ZM69.0351 32.828C68.2071 32.828 67.5111 33.08 66.9471 33.584C66.3951 34.088 66.0711 34.748 65.9751 35.564H72.0951C71.9991 34.76 71.6691 34.106 71.1051 33.602C70.5531 33.086 69.8631 32.828 69.0351 32.828ZM82.1261 41L79.3721 37.346L76.5821 41H74.6561L78.4181 36.122L74.8361 31.46H76.7621L79.3901 34.898L82.0001 31.46H83.8901L80.2901 36.122L84.0881 41H82.1261ZM85.9064 31.46H87.6344V35.51H93.0704V31.46H94.7984V41H93.0704V37.004H87.6344V41H85.9064V31.46ZM102.244 41.108C101.296 41.108 100.444 40.898 99.6884 40.478C98.9324 40.058 98.3384 39.482 97.9064 38.75C97.4864 38.006 97.2764 37.166 97.2764 36.23C97.2764 35.294 97.4864 34.46 97.9064 33.728C98.3384 32.984 98.9324 32.408 99.6884 32C100.444 31.58 101.296 31.37 102.244 31.37C103.192 31.37 104.038 31.58 104.782 32C105.538 32.408 106.126 32.984 106.546 33.728C106.978 34.46 107.194 35.294 107.194 36.23C107.194 37.166 106.978 38.006 106.546 38.75C106.126 39.482 105.538 40.058 104.782 40.478C104.038 40.898 103.192 41.108 102.244 41.108ZM102.244 39.596C102.856 39.596 103.402 39.458 103.882 39.182C104.374 38.894 104.758 38.498 105.034 37.994C105.31 37.478 105.448 36.89 105.448 36.23C105.448 35.57 105.31 34.988 105.034 34.484C104.758 33.968 104.374 33.572 103.882 33.296C103.402 33.02 102.856 32.882 102.244 32.882C101.632 32.882 101.08 33.02 100.588 33.296C100.108 33.572 99.7244 33.968 99.4364 34.484C99.1604 34.988 99.0224 35.57 99.0224 36.23C99.0224 36.89 99.1604 37.478 99.4364 37.994C99.7244 38.498 100.108 38.894 100.588 39.182C101.08 39.458 101.632 39.596 102.244 39.596ZM117.809 31.46V41H116.081V32.972H111.977L111.869 35.096C111.809 36.38 111.695 37.454 111.527 38.318C111.359 39.17 111.083 39.854 110.699 40.37C110.315 40.886 109.781 41.144 109.097 41.144C108.785 41.144 108.431 41.09 108.035 40.982L108.143 39.524C108.299 39.56 108.443 39.578 108.575 39.578C109.055 39.578 109.415 39.368 109.655 38.948C109.895 38.528 110.051 38.03 110.123 37.454C110.195 36.878 110.261 36.056 110.321 34.988L110.483 31.46H117.809ZM125.237 41.108C124.289 41.108 123.437 40.898 122.681 40.478C121.925 40.058 121.331 39.482 120.899 38.75C120.479 38.006 120.269 37.166 120.269 36.23C120.269 35.294 120.479 34.46 120.899 33.728C121.331 32.984 121.925 32.408 122.681 32C123.437 31.58 124.289 31.37 125.237 31.37C126.185 31.37 127.031 31.58 127.775 32C128.531 32.408 129.119 32.984 129.539 33.728C129.971 34.46 130.187 35.294 130.187 36.23C130.187 37.166 129.971 38.006 129.539 38.75C129.119 39.482 128.531 40.058 127.775 40.478C127.031 40.898 126.185 41.108 125.237 41.108ZM125.237 39.596C125.849 39.596 126.395 39.458 126.875 39.182C127.367 38.894 127.751 38.498 128.027 37.994C128.303 37.478 128.441 36.89 128.441 36.23C128.441 35.57 128.303 34.988 128.027 34.484C127.751 33.968 127.367 33.572 126.875 33.296C126.395 33.02 125.849 32.882 125.237 32.882C124.625 32.882 124.073 33.02 123.581 33.296C123.101 33.572 122.717 33.968 122.429 34.484C122.153 34.988 122.015 35.57 122.015 36.23C122.015 36.89 122.153 37.478 122.429 37.994C122.717 38.498 123.101 38.894 123.581 39.182C124.073 39.458 124.625 39.596 125.237 39.596ZM139.702 32.972H134.41V41H132.682V31.46H139.702V32.972ZM141.471 31.46H143.199V38.408L149.049 31.46H150.615V41H148.887V34.052L143.055 41H141.471V31.46ZM161.583 31.46V41H159.855V37.148C158.823 37.628 157.797 37.868 156.777 37.868C155.589 37.868 154.671 37.592 154.023 37.04C153.375 36.488 153.051 35.66 153.051 34.556V31.46H154.779V34.448C154.779 35.108 154.983 35.606 155.391 35.942C155.811 36.278 156.393 36.446 157.137 36.446C157.977 36.446 158.883 36.236 159.855 35.816V31.46H161.583ZM173.56 36.284C173.56 36.416 173.548 36.59 173.524 36.806H165.784C165.892 37.646 166.258 38.324 166.882 38.84C167.518 39.344 168.304 39.596 169.24 39.596C170.38 39.596 171.298 39.212 171.994 38.444L172.948 39.56C172.516 40.064 171.976 40.448 171.328 40.712C170.692 40.976 169.978 41.108 169.186 41.108C168.178 41.108 167.284 40.904 166.504 40.496C165.724 40.076 165.118 39.494 164.686 38.75C164.266 38.006 164.056 37.166 164.056 36.23C164.056 35.306 164.26 34.472 164.668 33.728C165.088 32.984 165.658 32.408 166.378 32C167.11 31.58 167.932 31.37 168.844 31.37C169.756 31.37 170.566 31.58 171.274 32C171.994 32.408 172.552 32.984 172.948 33.728C173.356 34.472 173.56 35.324 173.56 36.284ZM168.844 32.828C168.016 32.828 167.32 33.08 166.756 33.584C166.204 34.088 165.88 34.748 165.784 35.564H171.904C171.808 34.76 171.478 34.106 170.914 33.602C170.362 33.086 169.672 32.828 168.844 32.828ZM180.398 41.108C179.426 41.108 178.556 40.898 177.788 40.478C177.032 40.058 176.438 39.482 176.006 38.75C175.574 38.006 175.358 37.166 175.358 36.23C175.358 35.294 175.574 34.46 176.006 33.728C176.438 32.984 177.032 32.408 177.788 32C178.556 31.58 179.426 31.37 180.398 31.37C181.262 31.37 182.03 31.544 182.702 31.892C183.386 32.24 183.914 32.744 184.286 33.404L182.972 34.25C182.672 33.794 182.3 33.452 181.856 33.224C181.412 32.996 180.92 32.882 180.38 32.882C179.756 32.882 179.192 33.02 178.688 33.296C178.196 33.572 177.806 33.968 177.518 34.484C177.242 34.988 177.104 35.57 177.104 36.23C177.104 36.902 177.242 37.496 177.518 38.012C177.806 38.516 178.196 38.906 178.688 39.182C179.192 39.458 179.756 39.596 180.38 39.596C180.92 39.596 181.412 39.482 181.856 39.254C182.3 39.026 182.672 38.684 182.972 38.228L184.286 39.056C183.914 39.716 183.386 40.226 182.702 40.586C182.03 40.934 181.262 41.108 180.398 41.108ZM190.232 36.968H188.252V41H186.524V31.46H188.252V35.492H190.268L193.364 31.46H195.218L191.6 36.05L195.47 41H193.436L190.232 36.968ZM197.281 31.46H199.009V38.408L204.859 31.46H206.425V41H204.697V34.052L198.865 41H197.281V31.46ZM209.779 31.46H211.507V38.408L217.357 31.46H218.923V41H217.195V34.052L211.363 41H209.779V31.46ZM214.243 30.218C213.355 30.218 212.665 30.008 212.173 29.588C211.681 29.156 211.429 28.538 211.417 27.734H212.587C212.599 28.178 212.749 28.538 213.037 28.814C213.337 29.078 213.733 29.21 214.225 29.21C214.717 29.21 215.113 29.078 215.413 28.814C215.713 28.538 215.869 28.178 215.881 27.734H217.087C217.075 28.538 216.817 29.156 216.313 29.588C215.809 30.008 215.119 30.218 214.243 30.218ZM235.626 31.46L231 41.954C230.592 42.926 230.112 43.61 229.56 44.006C229.02 44.402 228.366 44.6 227.598 44.6C227.13 44.6 226.674 44.522 226.23 44.366C225.798 44.222 225.438 44.006 225.149 43.718L225.888 42.422C226.379 42.89 226.95 43.124 227.598 43.124C228.018 43.124 228.366 43.01 228.642 42.782C228.93 42.566 229.188 42.188 229.416 41.648L229.722 40.982L225.51 31.46H227.31L230.64 39.092L233.934 31.46H235.626ZM237.395 31.46H239.123V35.51H244.559V31.46H246.287V41H244.559V37.004H239.123V41H237.395V31.46ZM249.647 31.46H251.375V38.408L257.225 31.46H258.791V41H257.063V34.052L251.231 41H249.647V31.46ZM268.643 36.05C269.879 36.362 270.497 37.136 270.497 38.372C270.497 39.212 270.179 39.86 269.543 40.316C268.919 40.772 267.983 41 266.735 41H262.145V31.46H266.573C267.701 31.46 268.583 31.676 269.219 32.108C269.855 32.528 270.173 33.128 270.173 33.908C270.173 34.412 270.035 34.85 269.759 35.222C269.495 35.582 269.123 35.858 268.643 36.05ZM263.837 35.564H266.429C267.089 35.564 267.587 35.444 267.923 35.204C268.271 34.964 268.445 34.616 268.445 34.16C268.445 33.248 267.773 32.792 266.429 32.792H263.837V35.564ZM266.609 39.668C267.329 39.668 267.869 39.554 268.229 39.326C268.589 39.098 268.769 38.744 268.769 38.264C268.769 37.772 268.601 37.406 268.265 37.166C267.941 36.926 267.425 36.806 266.717 36.806H263.837V39.668H266.609ZM281.823 36.284C281.823 36.416 281.811 36.59 281.787 36.806H274.047C274.155 37.646 274.521 38.324 275.145 38.84C275.781 39.344 276.567 39.596 277.503 39.596C278.643 39.596 279.561 39.212 280.257 38.444L281.211 39.56C280.779 40.064 280.239 40.448 279.591 40.712C278.955 40.976 278.241 41.108 277.449 41.108C276.441 41.108 275.547 40.904 274.767 40.496C273.987 40.076 273.381 39.494 272.949 38.75C272.529 38.006 272.319 37.166 272.319 36.23C272.319 35.306 272.523 34.472 272.931 33.728C273.351 32.984 273.921 32.408 274.641 32C275.373 31.58 276.195 31.37 277.107 31.37C278.019 31.37 278.829 31.58 279.537 32C280.257 32.408 280.815 32.984 281.211 33.728C281.619 34.472 281.823 35.324 281.823 36.284ZM277.107 32.828C276.279 32.828 275.583 33.08 275.019 33.584C274.467 34.088 274.143 34.748 274.047 35.564H280.167C280.071 34.76 279.741 34.106 279.177 33.602C278.625 33.086 277.935 32.828 277.107 32.828ZM289.562 31.37C290.486 31.37 291.314 31.574 292.046 31.982C292.778 32.39 293.348 32.96 293.756 33.692C294.176 34.424 294.386 35.27 294.386 36.23C294.386 37.19 294.176 38.042 293.756 38.786C293.348 39.518 292.778 40.088 292.046 40.496C291.314 40.904 290.486 41.108 289.562 41.108C288.878 41.108 288.248 40.976 287.672 40.712C287.108 40.448 286.628 40.064 286.232 39.56V44.492H284.504V31.46H286.16V32.972C286.544 32.444 287.03 32.048 287.618 31.784C288.206 31.508 288.854 31.37 289.562 31.37ZM289.418 39.596C290.03 39.596 290.576 39.458 291.056 39.182C291.548 38.894 291.932 38.498 292.208 37.994C292.496 37.478 292.64 36.89 292.64 36.23C292.64 35.57 292.496 34.988 292.208 34.484C291.932 33.968 291.548 33.572 291.056 33.296C290.576 33.02 290.03 32.882 289.418 32.882C288.818 32.882 288.272 33.026 287.78 33.314C287.3 33.59 286.916 33.98 286.628 34.484C286.352 34.988 286.214 35.57 286.214 36.23C286.214 36.89 286.352 37.478 286.628 37.994C286.904 38.498 287.288 38.894 287.78 39.182C288.272 39.458 288.818 39.596 289.418 39.596ZM301.055 41.108C300.083 41.108 299.213 40.898 298.445 40.478C297.689 40.058 297.095 39.482 296.663 38.75C296.231 38.006 296.015 37.166 296.015 36.23C296.015 35.294 296.231 34.46 296.663 33.728C297.095 32.984 297.689 32.408 298.445 32C299.213 31.58 300.083 31.37 301.055 31.37C301.919 31.37 302.687 31.544 303.359 31.892C304.043 32.24 304.571 32.744 304.943 33.404L303.629 34.25C303.329 33.794 302.957 33.452 302.513 33.224C302.069 32.996 301.577 32.882 301.037 32.882C300.413 32.882 299.849 33.02 299.345 33.296C298.853 33.572 298.463 33.968 298.175 34.484C297.899 34.988 297.761 35.57 297.761 36.23C297.761 36.902 297.899 37.496 298.175 38.012C298.463 38.516 298.853 38.906 299.345 39.182C299.849 39.458 300.413 39.596 301.037 39.596C301.577 39.596 302.069 39.482 302.513 39.254C302.957 39.026 303.329 38.684 303.629 38.228L304.943 39.056C304.571 39.716 304.043 40.226 303.359 40.586C302.687 40.934 301.919 41.108 301.055 41.108ZM307.18 31.46H308.908V38.408L314.758 31.46H316.324V41H314.596V34.052L308.764 41H307.18V31.46ZM326.788 32.972H323.296V41H321.568V32.972H318.076V31.46H326.788V32.972ZM336.755 36.284C336.755 36.416 336.743 36.59 336.719 36.806H328.979C329.087 37.646 329.453 38.324 330.077 38.84C330.713 39.344 331.499 39.596 332.435 39.596C333.575 39.596 334.493 39.212 335.189 38.444L336.143 39.56C335.711 40.064 335.171 40.448 334.523 40.712C333.887 40.976 333.173 41.108 332.381 41.108C331.373 41.108 330.479 40.904 329.699 40.496C328.919 40.076 328.313 39.494 327.881 38.75C327.461 38.006 327.251 37.166 327.251 36.23C327.251 35.306 327.455 34.472 327.863 33.728C328.283 32.984 328.853 32.408 329.573 32C330.305 31.58 331.127 31.37 332.039 31.37C332.951 31.37 333.761 31.58 334.469 32C335.189 32.408 335.747 32.984 336.143 33.728C336.551 34.472 336.755 35.324 336.755 36.284ZM332.039 32.828C331.211 32.828 330.515 33.08 329.951 33.584C329.399 34.088 329.075 34.748 328.979 35.564H335.099C335.003 34.76 334.673 34.106 334.109 33.602C333.557 33.086 332.867 32.828 332.039 32.828ZM346.141 32.972H342.649V41H340.921V32.972H337.429V31.46H346.141V32.972Z" fill="#911B20"/>
<g clip-path="url(#clip0_93_2)">
<path fill-rule="evenodd" clip-rule="evenodd" d="M44.9879 27.0495L42.8197 27.6504L42.6893 28.9885L44.7006 30.005L44.4132 31.4627L42.1702 31.625L41.7845 32.9107L43.5602 34.3051L42.9976 35.677L40.7669 35.3923L40.138 36.5786L41.6103 38.296L40.7935 39.5319L38.661 38.8138L37.8167 39.8529L38.9288 41.8284L37.8886 42.8792L35.9351 41.754L34.9063 42.6068L35.6156 44.7606L34.3937 45.5879L32.6937 44.0998L31.5191 44.7332L31.801 46.9883L30.4414 47.5557L29.0627 45.7618L27.788 46.1516L27.6282 48.4191L26.1861 48.7078L25.18 46.676L23.8544 46.8086L23.2586 49H21.7883L21.1935 46.8086L19.8698 46.676L18.8616 48.7078L17.4206 48.4191L17.2607 46.1516L15.9871 45.7618L14.6076 47.5557L13.2479 46.9883L13.5286 44.7332L12.3562 44.0998L10.656 45.5879L9.4324 44.7628L10.1434 42.6068L9.11474 41.754L7.16026 42.8792L6.11919 41.8284L7.23389 39.8529L6.38958 38.8138L4.25441 39.5319L3.43753 38.296L4.91063 36.5786L4.28372 35.3923L2.05122 35.677L1.48859 34.3051L3.26535 32.9107L2.87766 31.625L0.635656 31.4627L0.349224 30.005L2.35942 28.9885L2.22902 27.6504L0.0598145 27.0495H3.99148C4.41327 37.0123 12.5377 44.9568 22.4984 44.9568C32.462 44.9568 40.5863 37.0123 41.009 27.0495H44.9879Z" fill="#911B20"/>
<path fill-rule="evenodd" clip-rule="evenodd" d="M40.4018 27.0495C39.9802 36.6703 32.1271 44.3385 22.4984 44.3385C12.8724 44.3385 5.02028 36.6703 4.59672 27.0495H11.0267V26.5825H0.00027479C-0.0517373 16.5716 8.19945 1.03539 27.4985 0.0885811C31.4852 -0.108044 39.7929 0.0490189 44.7969 0.300743L44.3837 4.87325C41.5028 5.04611 31.2289 5.36901 36.7254 9.48493C44.326 15.1774 45.0145 24.0403 44.9993 26.5825H33.972V27.0495H40.4018Z" fill="#911B20"/>
<path d="M22.9277 31.6994V32.5707L23.3476 32.433L23.3672 32.4273L23.8317 32.3127L23.8468 32.3098L23.8703 32.307L24.4595 32.2441L24.4727 32.2419H24.4936L25.0959 32.2534H25.1196H25.1252L25.9554 32.349L25.9743 32.351L26.8577 32.5075H26.8611L27.8096 32.6834L28.3476 32.7768L28.9548 32.8609L29.768 32.9756L30.2823 33.0215L30.9622 33.0358L31.6003 32.9508L32.2852 32.8333L32.5858 32.7455L32.5914 32.1083L33.1559 32.0041L33.1532 32.9451L33.1559 33.1503L32.9508 33.2087L32.4298 33.3605L32.4147 33.3644L32.3985 33.3672L31.6969 33.4867L31.6876 33.4885L31.018 33.5774L30.999 33.5802L30.9746 33.5793L30.2616 33.564H30.2408L29.6998 33.5163L29.6856 33.5143L28.8726 33.3996L28.2588 33.3139L28.2515 33.3117L27.7114 33.2221L27.7067 33.22L26.7552 33.0424L25.891 32.8907L25.0647 32.796L24.5088 32.7865L23.9545 32.8457L23.5139 32.9537L22.9277 33.1475V33.287H22.6439L22.5031 33.288L22.0765 33.287V33.1475L21.4923 32.9537L21.0498 32.8457L20.4977 32.7865L19.9406 32.796L19.1152 32.8907L18.2508 33.0424L17.2978 33.22L17.293 33.2221L16.755 33.3117L16.7474 33.3139L16.1319 33.3996L15.3196 33.5143L15.3034 33.5163L14.7646 33.564H14.7437L14.0297 33.5793L14.007 33.5802L13.9881 33.5774L13.3187 33.4885L13.3074 33.4867L12.6067 33.3672L12.5906 33.3644L12.5754 33.3605L12.0525 33.2087L11.8483 33.1503L11.8511 32.9451L11.8483 32.0041L12.4185 32.1083V32.7455L12.7201 32.8333L13.4056 32.9508L14.0431 33.0358L14.722 33.0215L15.2382 32.9756L16.0514 32.8609L16.6566 32.7768L17.1975 32.6834L18.1449 32.5075H18.1469L19.0299 32.351L19.0489 32.349L19.8791 32.2534H19.8849H19.9083L20.5106 32.2419H20.5334L20.5467 32.2441L21.1358 32.307L21.1577 32.3098L21.1727 32.3127L21.638 32.4273L21.6597 32.433L22.0765 32.5707V31.6994L22.4984 31.8485L22.9277 31.6994Z" fill="white"/>
<path fill-rule="evenodd" clip-rule="evenodd" d="M11.3539 16.7454L12.1235 16.8553L13.0236 16.9426H13.7404L14.598 16.9206L15.3461 16.8443L16.0154 16.7454L16.6885 16.636L17.6523 16.4948L18.4664 16.3743L19.117 16.3562L19.7485 16.3743L20.4332 16.4407L21.044 16.604L21.6436 16.8553L21.9879 17.1395L22.2393 17.3554L22.3471 17.5554V31.5964L21.4923 31.3231L20.9931 31.2046L20.3594 31.1368L19.7108 31.1483L18.8146 31.2468L17.864 31.411L16.8373 31.5964L16.2557 31.6919L15.5947 31.7817L14.72 31.9019L14.1396 31.9517L13.3679 31.9688L12.6483 31.8761L11.8927 31.7501L11.3322 31.5915L11.3539 29.9849V16.7454ZM33.6469 16.7454L32.876 16.8553L31.9749 16.9426H31.2582L30.4034 16.9206L29.6526 16.8443L28.985 16.7454L28.3119 16.636L27.3453 16.4948L26.534 16.3743L25.8817 16.3562L25.2499 16.3743L24.5673 16.4407L23.9565 16.604L23.3531 16.8553L23.0108 17.1395L22.7603 17.3554L22.6535 17.5554V31.5964L23.5064 31.3231L24.0056 31.2046L24.641 31.1368L25.2896 31.1483L26.1843 31.2468L27.1364 31.411L28.1624 31.5964L28.7438 31.6919L29.4058 31.7817L30.2804 31.9019L30.863 31.9517L31.6309 31.9688L32.3515 31.8761L33.106 31.7501L33.6656 31.5915L33.6469 29.9849V16.7454Z" fill="white"/>
<path d="M30.5234 35.3617H30.6304C30.7306 35.3617 30.846 35.3712 30.9746 35.3894C31.1051 35.4094 31.2375 35.419 31.3717 35.419C31.5079 35.419 31.6705 35.4075 31.8624 35.3855C32.0033 35.3693 32.1111 35.3617 32.181 35.3617H32.3323V35.6023H32.1981C32.1253 35.6023 32.0667 35.63 32.0241 35.6826C31.9817 35.7362 31.9618 35.8012 31.9618 35.8774C31.9618 35.9424 31.9909 36.0686 32.0505 36.2596C32.1081 36.4516 32.2416 36.8174 32.446 37.3598C32.6501 37.9006 32.7815 38.2692 32.8411 38.4641C32.9016 38.6591 32.9394 38.8156 32.9536 38.9311H33.0226C33.0566 38.7469 33.0984 38.573 33.1493 38.4126L33.7442 36.5174C33.7981 36.3416 33.8263 36.1793 33.8263 36.0284C33.8263 35.8966 33.8037 35.7915 33.7602 35.7151C33.7184 35.6406 33.662 35.6023 33.5882 35.6023H33.3802V35.3617H33.5483C33.5957 35.3617 33.6637 35.3693 33.7574 35.3855C33.8963 35.4075 34.0145 35.419 34.1157 35.419C34.2046 35.419 34.3446 35.4056 34.5355 35.3808C34.6035 35.3674 34.6747 35.3617 34.7492 35.3617H34.8674V35.6023H34.6169C34.5517 35.6023 34.4847 35.6453 34.4156 35.7276C34.3465 35.8106 34.2688 35.9529 34.1819 36.1563C34.095 36.357 33.9927 36.6321 33.8792 36.978C33.764 37.3227 33.6276 37.7688 33.47 38.3095C33.33 38.7927 33.2108 39.1749 33.1136 39.4556C33.0169 39.7345 32.914 39.9696 32.8088 40.1596C32.7021 40.3496 32.5858 40.4891 32.4573 40.5789C32.3323 40.6686 32.183 40.7147 32.011 40.7147C31.8388 40.7147 31.712 40.6601 31.6287 40.5503C31.5437 40.4434 31.5042 40.3078 31.5042 40.1434C31.5042 40.0745 31.523 39.9982 31.5598 39.916C31.5968 39.8339 31.6287 39.7212 31.6535 39.5789H31.8729C31.8567 39.6296 31.8484 39.6889 31.8484 39.7556C31.8484 39.897 31.8917 40.0192 31.9787 40.1205C32.0638 40.2238 32.1659 40.2752 32.288 40.2752C32.3742 40.2752 32.4477 40.2417 32.5092 40.1749C32.5727 40.1071 32.602 39.9973 32.602 39.8454C32.602 39.7652 32.5545 39.5989 32.4611 39.3496C32.3646 39.1002 32.2501 38.8205 32.113 38.5119C31.9749 38.2024 31.8937 38.0162 31.8671 37.9551C31.8257 37.8518 31.7622 37.7019 31.6779 37.5014C31.5928 37.3027 31.5171 37.1154 31.4473 36.9416C31.3035 36.592 31.1883 36.3189 31.0955 36.1258C31.0047 35.9319 30.9226 35.7973 30.8498 35.7199C30.7797 35.6425 30.7022 35.6023 30.6171 35.6023H30.5234V35.3617ZM28.0055 35.6091H27.5023C27.2838 35.6091 27.1015 35.6645 26.954 35.7733C26.8064 35.8831 26.6892 36.0915 26.6031 36.4029H26.3657C26.378 36.315 26.3885 36.2453 26.3962 36.1907C26.4044 36.1354 26.415 36.0742 26.4245 36.0094C26.4707 35.7132 26.502 35.4677 26.5171 35.2719C26.5522 35.2747 26.5917 35.2777 26.6364 35.2815C26.6797 35.2853 26.7233 35.2892 26.7666 35.292C26.8112 35.2958 26.8727 35.3024 26.9511 35.3101C27.2119 35.3369 27.5015 35.3502 27.8219 35.3551C27.9638 35.3551 28.0906 35.3551 28.2021 35.3578C28.3108 35.3597 28.3809 35.3617 28.4064 35.3617C28.828 35.3617 29.3443 35.3398 29.9589 35.2968C30.0591 35.2958 30.2133 35.2853 30.4224 35.2719C30.4034 35.5222 30.3635 35.7858 30.3089 36.0571C30.3059 36.0723 30.2861 36.187 30.2464 36.4029H30.0025C30.0232 36.2806 30.0327 36.184 30.0327 36.1164C30.0327 35.9635 29.9847 35.8422 29.8871 35.7496C29.7888 35.6558 29.5941 35.6091 29.3046 35.6091H28.8073V38.3227C28.8073 38.6724 28.828 38.9437 28.8668 39.1366C28.9066 39.3295 29.004 39.4259 29.16 39.4259H29.2915V39.6676H29.0606C28.9963 39.6676 28.9074 39.6524 28.7959 39.6219C28.672 39.6027 28.5407 39.5912 28.4064 39.5912C28.2731 39.5912 28.1434 39.6027 28.0187 39.6219C27.9051 39.6524 27.8172 39.6676 27.7539 39.6676H27.5023V39.4259H27.6348C27.7956 39.4259 27.8974 39.318 27.941 39.1002C27.9827 38.8853 28.0055 38.6274 28.0055 38.3304V35.6091ZM21.2447 35.3617H21.445C21.4752 35.3617 21.5803 35.3712 21.759 35.3922C21.9178 35.4094 22.0312 35.419 22.0973 35.419C22.1638 35.419 22.2772 35.4094 22.4378 35.3922C22.6174 35.3712 22.7206 35.3617 22.7517 35.3617H22.9579V35.6023H22.8257C22.6902 35.6023 22.5995 35.6645 22.5607 35.7877C22.5202 35.9099 22.4984 36.0857 22.4984 36.3131V36.5442V38.0056C22.4984 38.1939 22.4747 38.4566 22.4246 38.7985H22.4804C22.6136 38.5921 22.9012 38.2463 23.3476 37.7631C23.5432 37.5491 23.7596 37.3027 23.998 37.0209C24.2363 36.7392 24.4689 36.4525 24.6997 36.162C24.9285 35.8718 25.1366 35.5947 25.3257 35.3273C25.424 35.3101 25.5319 35.2968 25.6471 35.292C25.6188 35.6082 25.6074 35.8927 25.6074 36.1468V38.4756C25.6074 38.682 25.613 38.851 25.6264 38.9808C25.6378 39.1117 25.668 39.2178 25.7172 39.301C25.7653 39.384 25.8363 39.4259 25.9347 39.4259H26.067V39.6676H25.8522C25.7928 39.6676 25.7075 39.6524 25.5962 39.6219C25.4694 39.6027 25.3398 39.5912 25.2055 39.5912C25.0818 39.5912 24.956 39.6027 24.8303 39.6219C24.7165 39.6524 24.6307 39.6676 24.5729 39.6676H24.3403V39.4259H24.4708C24.5729 39.4259 24.6485 39.3794 24.6978 39.2837C24.7471 39.1891 24.7753 39.0755 24.7876 38.9475C24.7981 38.8167 24.8037 38.6562 24.8037 38.4622V36.998C24.8037 36.8499 24.8272 36.6854 24.8736 36.5042H24.8368C24.7697 36.6416 24.5673 36.9015 24.2345 37.2856C23.8977 37.6675 23.5469 38.0572 23.1791 38.4498C22.8123 38.8424 22.5607 39.1089 22.4246 39.2494C22.2507 39.4336 22.1314 39.5741 22.0653 39.6676L21.6399 39.7766C21.6776 39.1491 21.6964 38.8175 21.6964 38.7812V36.5289V36.2568C21.6964 36.0494 21.6758 35.8889 21.6332 35.7763C21.5905 35.6598 21.5055 35.6023 21.3769 35.6023H21.2447V35.3617ZM15.9966 35.3617H16.2037C16.2404 35.3617 16.3426 35.3712 16.5109 35.3922C16.6726 35.4094 16.7871 35.419 16.8562 35.419C16.9242 35.419 17.0367 35.4094 17.1956 35.3922C17.3638 35.3712 17.4659 35.3617 17.5039 35.3617H17.7166V35.6023H17.5852C17.4888 35.6023 17.4197 35.6348 17.3734 35.6978C17.328 35.76 17.2978 35.8402 17.2864 35.9405C17.2732 36.0409 17.2665 36.1678 17.2646 36.3254C17.2646 36.3875 17.2637 36.4735 17.2607 36.5816C17.2599 36.6894 17.259 36.7658 17.259 36.8079V37.2587C17.5417 37.2932 17.9332 37.3132 18.4324 37.3132C18.873 37.3132 19.2437 37.2969 19.5426 37.2643V36.7945C19.5426 36.7523 19.5443 36.6797 19.5472 36.5786C19.5492 36.4792 19.5502 36.4009 19.5502 36.3455C19.5502 36.1181 19.5275 35.9366 19.4819 35.8029C19.4365 35.6693 19.3486 35.6023 19.2174 35.6023H19.0857V35.3617H19.294C19.3307 35.3617 19.4319 35.3712 19.6012 35.3922C19.759 35.4094 19.8752 35.419 19.9454 35.419C20.0114 35.419 20.1251 35.4094 20.2839 35.3922C20.4522 35.3712 20.5553 35.3617 20.5911 35.3617H20.8038V35.6023H20.6724C20.5354 35.6023 20.4457 35.6664 20.4096 35.7897C20.3728 35.9128 20.3537 36.101 20.3537 36.357V36.5728C20.3481 36.6321 20.3471 36.7114 20.3471 36.8079V38.64C20.3471 39.1634 20.4578 39.4259 20.6811 39.4259H20.8038V39.6676H20.5789C20.5183 39.6676 20.434 39.6524 20.3207 39.6219C20.1969 39.6027 20.0684 39.5912 19.9386 39.5912C19.8121 39.5912 19.6843 39.6027 19.5557 39.6219C19.4441 39.6524 19.3591 39.6676 19.2986 39.6676H19.0735V39.4259H19.1984C19.429 39.4259 19.5426 39.1634 19.5426 38.64V37.5605C19.3449 37.5805 18.9846 37.595 18.4644 37.5997H17.9614C17.6816 37.595 17.4472 37.5805 17.259 37.5605V38.64C17.259 39.1634 17.3686 39.4259 17.5916 39.4259H17.7166V39.6676H17.4925C17.4301 39.6676 17.3449 39.6524 17.2352 39.6219C17.1067 39.6027 16.98 39.5912 16.8504 39.5912C16.7209 39.5912 16.5923 39.6027 16.4676 39.6219C16.3539 39.6524 16.27 39.6676 16.2093 39.6676H15.9835V39.4259H16.1092C16.3388 39.4259 16.4542 39.1634 16.4542 38.64V36.7964C16.4542 36.7544 16.4562 36.6797 16.4579 36.5794C16.4601 36.4792 16.4601 36.4009 16.4601 36.3466C16.4601 36.1181 16.438 35.9366 16.3927 35.804C16.3485 35.6693 16.2594 35.6023 16.1271 35.6023H15.9966V35.3617ZM14.0261 35.6023H14.1623C14.2585 35.6023 14.3079 35.6731 14.3079 35.8125C14.2794 35.9366 14.219 36.0494 14.1262 36.1505C14.0345 36.2519 13.9004 36.3817 13.7245 36.5442C13.6382 36.6206 13.5636 36.6913 13.5059 36.7544C13.4455 36.8136 13.3527 36.9149 13.2232 37.0523C13.0946 37.1928 12.9736 37.3217 12.8572 37.4411C13.1826 37.8184 13.5342 38.2703 13.9124 38.7985C14.0866 39.0412 14.217 39.2167 14.3079 39.3276C14.3976 39.4364 14.5006 39.5282 14.6236 39.5989C14.7437 39.6715 14.8874 39.7068 15.0546 39.7068C15.1929 39.7068 15.3291 39.683 15.4625 39.6373C15.5275 39.6104 15.591 39.5893 15.657 39.5722V39.3257C15.5069 39.3869 15.3877 39.4193 15.3006 39.4193C15.2145 39.4193 15.1427 39.382 15.0822 39.3086C15.0216 39.2321 14.9347 39.1079 14.8222 38.9311C14.564 38.5281 14.3664 38.2329 14.2321 38.0381C14.0941 37.8471 13.9533 37.6827 13.8076 37.5511C13.6647 37.4182 13.5012 37.3217 13.3224 37.2587C13.366 37.2204 13.4455 37.144 13.5588 37.0303C13.9021 36.6894 14.1791 36.4239 14.389 36.2365C14.599 36.0467 14.7684 35.9081 14.8986 35.8164C15.0283 35.7236 15.1323 35.6664 15.2089 35.6406C15.2855 35.6156 15.3629 35.6023 15.4426 35.6023H15.5323V35.3617H15.3934C15.2931 35.3617 15.2212 35.3635 15.1776 35.3693C15.1343 35.3712 15.0917 35.3808 15.0481 35.3903C15.0056 35.4017 14.9735 35.4094 14.9489 35.4114C14.9252 35.4171 14.8752 35.419 14.8024 35.419C14.7485 35.419 14.6776 35.4114 14.5877 35.4009C14.5006 35.3903 14.4458 35.3826 14.4194 35.3808C14.3938 35.377 14.3503 35.374 14.2908 35.3693C14.2341 35.3635 14.1886 35.3617 14.1575 35.3617H14.0261V35.6023ZM11.4758 35.3617H11.6837C11.7206 35.3617 11.8229 35.3712 11.9892 35.3922C12.15 35.4094 12.2654 35.419 12.3362 35.419C12.4025 35.419 12.515 35.4094 12.6737 35.3922C12.842 35.3712 12.9442 35.3617 12.9822 35.3617H13.1957V35.6023H13.0644C12.9631 35.6023 12.8885 35.6406 12.8403 35.7151C12.7912 35.7915 12.7637 35.8851 12.7534 35.9979C12.7428 36.1087 12.7382 36.2615 12.7382 36.4592V38.64C12.7382 39.1634 12.8488 39.4259 13.0709 39.4259H13.1957V39.6676H12.9698C12.9094 39.6676 12.8252 39.6524 12.7135 39.6219C12.584 39.6027 12.4565 39.5912 12.3297 39.5912C12.2009 39.5912 12.0724 39.6027 11.9466 39.6219C11.8352 39.6524 11.749 39.6676 11.6904 39.6676H11.4615V39.4259H11.5882C11.8191 39.4259 11.9343 39.1634 11.9343 38.64V36.4592C11.9343 36.2615 11.9297 36.1087 11.9192 35.9979C11.9098 35.8851 11.8786 35.7915 11.8322 35.7151C11.783 35.6406 11.7095 35.6023 11.6092 35.6023H11.4758V35.3617Z" fill="white"/>
<path d="M25.7455 12.5273C25.7869 12.8635 25.8532 13.1358 25.946 13.3439C26.0385 13.5517 26.1408 13.7003 26.2504 13.7891C26.3591 13.8788 26.4659 13.9243 26.5701 13.9243C26.746 13.9243 26.9029 13.8183 27.038 13.6071C27.1751 13.3965 27.2433 13.0426 27.2433 12.544C27.2433 12.1795 27.2167 11.8362 27.1648 11.5162C27.1127 11.1938 27.0324 10.9355 26.9189 10.7387C26.8064 10.5415 26.6665 10.4426 26.4963 10.4426C26.3809 10.4426 26.2618 10.4794 26.1436 10.5491C26.0272 10.6211 25.925 10.7492 25.8419 10.9355C25.7587 11.1226 25.7172 11.3757 25.7172 11.6933C25.7172 12.0626 25.7265 12.341 25.7455 12.5273ZM25.0505 12.1277C25.0505 11.8328 25.0892 11.5674 25.1688 11.3299C25.2452 11.0925 25.3541 10.8924 25.49 10.731C25.6264 10.57 25.7815 10.4478 25.9554 10.3657C26.1312 10.284 26.3119 10.2419 26.502 10.2419C26.7904 10.2419 27.0429 10.3328 27.2584 10.5118C27.4741 10.6928 27.6404 10.9301 27.7539 11.2239C27.8674 11.5195 27.9259 11.8285 27.9259 12.1505C27.9259 12.6095 27.8541 12.9882 27.7113 13.2872C27.5686 13.5866 27.3889 13.8044 27.1696 13.9409C26.9521 14.0761 26.727 14.1448 26.4963 14.1448C26.2996 14.1448 26.1133 14.0976 25.9384 14.0034C25.7643 13.9104 25.6093 13.7752 25.4749 13.5961C25.3398 13.4194 25.2368 13.205 25.1629 12.9518C25.0874 12.7024 25.0505 12.4279 25.0505 12.1277ZM22.7178 14.1716V13.9667C23.1167 13.7891 23.4365 13.5651 23.6699 13.2943C23.9053 13.0225 24.0671 12.7528 24.155 12.4843C24.2439 12.2158 24.2874 11.9805 24.2874 11.7788C24.2874 11.4794 24.2572 11.2239 24.1938 11.0123C24.1323 10.8014 24.0454 10.6416 23.9366 10.5337C23.829 10.4258 23.7097 10.3718 23.5782 10.3718C23.4005 10.3718 23.2509 10.4484 23.1318 10.6041C23.0128 10.7572 22.9532 10.9813 22.9532 11.2716C22.9532 11.4621 22.9843 11.6261 23.0432 11.7669C23.1036 11.9069 23.1839 12.0129 23.2861 12.0846C23.3871 12.1567 23.4969 12.1919 23.616 12.1919C23.7362 12.1919 23.8373 12.1533 23.9159 12.0746V12.2946C23.7125 12.3855 23.4988 12.4293 23.2736 12.4293C23.096 12.4293 22.9353 12.3869 22.7858 12.3013C22.6382 12.2154 22.5202 12.0897 22.4321 11.9274C22.3452 11.764 22.3007 11.5749 22.3007 11.3591C22.3007 11.137 22.3528 10.9336 22.4531 10.7511C22.5541 10.5649 22.7027 10.4191 22.8993 10.3117C23.095 10.2042 23.3294 10.1513 23.599 10.1513C23.8232 10.1513 24.0217 10.1889 24.1929 10.2643C24.363 10.3403 24.5066 10.443 24.6204 10.5749C24.7338 10.7043 24.8189 10.8551 24.8756 11.0205C24.9313 11.188 24.9605 11.3642 24.9605 11.5463C24.9605 11.7359 24.9304 11.9422 24.8717 12.1648C24.8121 12.3869 24.7035 12.6208 24.5445 12.8688C24.3828 13.1138 24.155 13.3516 23.8544 13.5807C23.5556 13.8101 23.1754 14.0074 22.7178 14.1716ZM20.6848 12.1786C20.5069 12.2742 20.3481 12.4075 20.2157 12.5788C20.0806 12.7489 20.0114 12.9456 20.0114 13.1644C20.0114 13.3039 20.0457 13.4284 20.1137 13.5432C20.1798 13.6543 20.2704 13.7433 20.3842 13.8063C20.4977 13.8703 20.6185 13.9023 20.7491 13.9023C20.8662 13.9023 20.9749 13.8731 21.078 13.8149C21.1765 13.7566 21.2577 13.6768 21.3182 13.5775C21.3769 13.4787 21.4062 13.3693 21.4062 13.2495C21.4062 13.0718 21.3504 12.8893 21.2447 12.6997C21.1367 12.5101 20.9495 12.3376 20.6848 12.1786ZM20.9835 11.8391C21.1292 11.7406 21.2388 11.6218 21.3165 11.4798C21.394 11.3401 21.4337 11.2048 21.4337 11.0739C21.4337 10.9737 21.411 10.8771 21.3693 10.7811C21.3286 10.6856 21.2634 10.6073 21.1756 10.5457C21.0856 10.4851 20.9741 10.4546 20.8382 10.4546C20.6489 10.4546 20.5106 10.5099 20.4237 10.6211C20.3368 10.7334 20.2951 10.8613 20.2951 11.0095C20.2951 11.127 20.3481 11.2578 20.4578 11.4021C20.5665 11.5463 20.7415 11.6919 20.9835 11.8391ZM20.4559 12.0765C20.2876 11.9823 20.1458 11.8882 20.0323 11.7942C19.9189 11.7005 19.83 11.5964 19.7636 11.4761C19.6975 11.3572 19.6664 11.2226 19.6664 11.0725C19.6664 10.9301 19.7117 10.7964 19.8053 10.6679C19.8979 10.539 20.0362 10.4369 20.2203 10.3569C20.4047 10.2773 20.6271 10.2386 20.8825 10.2386C21.1292 10.2386 21.3286 10.2802 21.4809 10.3642C21.6349 10.4478 21.7419 10.551 21.8043 10.6732C21.8649 10.7937 21.8961 10.9144 21.8961 11.0362C21.8961 11.2445 21.8336 11.4173 21.7106 11.5544C21.5848 11.6919 21.4034 11.8238 21.1605 11.9513C21.4395 12.0865 21.655 12.2397 21.8099 12.4161C21.9633 12.5903 22.0408 12.7961 22.0408 13.0339C22.0408 13.2288 21.9879 13.4075 21.8809 13.5718C21.7741 13.736 21.6209 13.8665 21.4213 13.9633C21.2228 14.0593 20.9931 14.1066 20.7349 14.1066C20.5089 14.1066 20.3065 14.0685 20.1251 13.9882C19.9471 13.9085 19.8073 13.801 19.7078 13.6688C19.6086 13.5355 19.5594 13.3918 19.5594 13.2399C19.5594 12.7092 19.8592 12.322 20.4559 12.0765ZM17.0745 11.2386V10.9592C17.1975 10.9183 17.328 10.8667 17.4623 10.8056C17.5975 10.743 17.7345 10.6743 17.8698 10.5988C18.004 10.5237 18.1336 10.4469 18.2489 10.3667C18.3671 10.2858 18.4644 10.213 18.5402 10.146H18.5997C18.5706 10.3505 18.5507 10.5749 18.5402 10.8189C18.5231 11.1317 18.5146 11.4307 18.5146 11.7139C18.5146 11.9622 18.5118 12.1752 18.5099 12.3478C18.5063 12.522 18.5043 12.6447 18.5043 12.7163C18.5043 12.9901 18.5099 13.1983 18.5242 13.3439C18.5365 13.4901 18.5609 13.5956 18.595 13.6611C18.629 13.7289 18.6765 13.7714 18.7303 13.7891C18.7861 13.8053 18.8712 13.8149 18.9846 13.8149H19.0905V14.0207H18.9675C18.8314 14.0207 18.6894 14.0074 18.5345 13.9826C18.385 13.9573 18.2668 13.9448 18.1789 13.9448C18.0713 13.9448 17.9397 13.9573 17.7828 13.9826C17.6259 14.0074 17.517 14.0207 17.4631 14.0207H17.2494V13.8149H17.4264C17.5472 13.8149 17.6372 13.7986 17.6948 13.7662C17.7507 13.7346 17.7932 13.6673 17.8177 13.5651C17.8415 13.4647 17.8583 13.3163 17.8651 13.1209C17.8706 12.9247 17.8726 12.5984 17.8726 12.1386V11.6118C17.8726 11.3945 17.8669 11.2392 17.8537 11.1456C17.8404 11.0524 17.8102 10.9937 17.76 10.9694H17.6334C17.5312 10.9923 17.4054 11.0467 17.2607 11.1328C17.2068 11.1656 17.1435 11.2019 17.0745 11.2386Z" fill="white"/>
</g>
<defs>
<clipPath id="clip0_93_2">
<rect width="45" height="49" fill="white"/>
</clipPath>
</defs>
</svg>
